<svg width="134" height="20" viewBox="0 0 134 20" fill="none" xmlns="http://www.w3.org/2000/svg"><path d="M.67 7v-.58c.59-.44 1.08-.83 1.48-1.16.4-.33.72-.63.96-.9s.42-.52.52-.76c.1-.25.15-.5.15-.77 0-.35-.11-.64-.34-.85a1.24 1.24 0 00-.92-.33c-.4 0-.74.13-.98.4-.25.26-.4.62-.43 1.06l-.63-.38c.05-.34.16-.65.33-.91.17-.27.4-.48.7-.63.29-.15.64-.22 1.04-.22.3 0 .58.04.82.14.24.08.45.21.63.38.17.16.3.36.4.59.09.23.14.48.14.75 0 .38-.1.74-.27 1.1-.18.35-.48.73-.9 1.12-.4.39-.97.82-1.68 1.3h.27a7.03 7.03 0 01.62-.02h2.08V7h-4zm7.6 0V5.44h-2.9v-.53l2.71-3.85h.9v3.76h1.06v.62H9V7h-.72zM6.14 4.82h2.13V2.6a12.89 12.89 0 01.03-.96H8.3a5.7 5.7 0 01-.6 1L6.14 4.81zM17 4.1c0-.33-.1-.6-.27-.77-.18-.19-.44-.28-.77-.28-.3 0-.57.07-.79.2-.21.14-.37.35-.48.65l-.58-.35c.12-.34.34-.61.67-.81.32-.21.72-.32 1.2-.32.33 0 .62.06.88.17.27.1.47.28.62.5.16.23.24.52.24.87v2.18c0 .21.11.32.34.32.11 0 .23-.01.33-.04l-.03.56c-.12.06-.28.1-.47.1-.17 0-.33-.04-.47-.1a.74.74 0 01-.32-.3c-.08-.14-.12-.31-.12-.52v-.09l.18.03c-.07.24-.2.43-.37.58a1.8 1.8 0 01-.58.32 2.18 2.18 0 01-1.38-.04 1.26 1.26 0 01-.55-.4c-.13-.19-.2-.41-.2-.68 0-.34.11-.62.34-.83.22-.22.54-.37.94-.45l1.78-.35v.6l-1.45.29c-.29.06-.5.14-.65.25a.53.53 0 00-.22.45c0 .19.07.34.22.46.15.11.36.17.63.17.17 0 .34-.02.5-.06.15-.05.3-.12.42-.21.13-.1.23-.21.3-.35.07-.14.1-.31.1-.5V4.08zm4.1 3a2.1 2.1 0 01-.82-.16c-.25-.11-.46-.28-.62-.52a1.76 1.76 0 01-.24-.96V2.5h.72v2.76c0 .46.1.77.3.95.2.17.48.25.84.25a1.25 1.25 0 001.23-.83c.08-.19.12-.42.12-.68V2.5h.72V7h-.63l-.05-.68c-.15.27-.37.46-.64.59-.26.12-.57.18-.93.18zm7.71-5.42l.16.64h-.06c-.3 0-.52.06-.68.18-.16.11-.24.3-.24.56l-.44-.23c0-.23.06-.43.16-.6.11-.18.26-.31.45-.4.18-.1.39-.15.6-.15h.05zm-1.37 4.75c.43 0 .76.1 1 .3.24.2.36.45.36.78 0 .29-.1.54-.3.76-.19.22-.45.38-.78.5-.32.12-.69.18-1.1.18-.7 0-1.23-.13-1.59-.37-.35-.23-.52-.52-.52-.86a1 1 0 01.23-.65c.17-.18.44-.29.81-.31l-.06.13c-.2-.05-.38-.14-.52-.27s-.2-.32-.2-.56c0-.25.08-.46.26-.63.19-.18.46-.3.82-.34l.48.25h-.1c-.29.03-.5.1-.62.22a.51.51 0 00-.18.38c0 .17.06.3.18.38.12.08.3.11.52.11h1.31zm-.82 1.91c.34 0 .63-.03.85-.1.23-.08.4-.17.5-.29.11-.1.17-.23.17-.36 0-.17-.07-.3-.2-.4-.13-.09-.36-.13-.7-.13h-1.38a.8.8 0 00-.49.14.5.5 0 00-.2.41c0 .23.13.4.38.53.26.14.62.2 1.07.2zm-.07-5.92c.36 0 .68.07.96.2.28.12.5.3.65.53.16.23.24.5.24.8 0 .28-.08.55-.24.78-.15.23-.37.41-.65.54-.28.13-.6.2-.96.2-.6 0-1.05-.15-1.36-.43a1.42 1.42 0 01-.48-1.1c0-.3.08-.56.23-.8.16-.22.38-.4.66-.52.28-.13.6-.2.95-.2zm0 .58c-.3 0-.57.1-.78.27a.82.82 0 00-.31.67c0 .28.1.5.31.68.21.17.47.26.78.26.32 0 .58-.09.79-.26.2-.18.31-.4.31-.68s-.1-.5-.31-.67a1.19 1.19 0 00-.79-.26zm4.9 4.1a2.1 2.1 0 01-.83-.16c-.25-.11-.46-.28-.62-.52a1.76 1.76 0 01-.23-.96V2.5h.72v2.76c0 .46.1.77.3.95.2.17.47.25.83.25a1.25 1.25 0 001.23-.83c.08-.19.12-.42.12-.68V2.5h.72V7h-.63l-.04-.68c-.16.27-.37.46-.64.59-.27.12-.58.18-.94.18zm5.54 0c-.44 0-.84-.1-1.22-.28a2 2 0 01-.84-.8l.6-.43c.14.27.33.49.59.65.25.15.56.23.92.23.32 0 .57-.06.75-.18a.57.57 0 00.27-.49.52.52 0 00-.13-.34c-.07-.1-.23-.18-.46-.23l-1.08-.23a1.72 1.72 0 01-.94-.45 1.14 1.14 0 01-.28-.78c0-.25.07-.47.2-.67.15-.2.35-.37.61-.5.26-.12.57-.18.93-.18.44 0 .82.09 1.12.26.3.18.54.42.69.74l-.6.4c-.1-.27-.27-.46-.5-.58a1.55 1.55 0 00-1.27-.1.82.82 0 00-.35.25.58.58 0 00.02.72c.09.11.25.19.5.24l1.13.23c.42.08.7.22.88.41.16.2.25.43.25.7a1.28 1.28 0 01-.86 1.24c-.27.11-.58.17-.93.17zm4.19-5.87v4.54c0 .22.06.38.19.5.12.1.28.16.48.16a1.04 1.04 0 00.8-.34l.25.6c-.14.13-.3.23-.5.3-.19.07-.4.11-.65.11-.23 0-.44-.04-.64-.12-.2-.08-.35-.21-.47-.38a1.35 1.35 0 01-.18-.7V1.41l.72-.2zm1.63 1.28v.62h-3.25V2.5h3.25zm2.7 4.59a2.1 2.1 0 01-.82-.16c-.25-.11-.45-.28-.62-.52a1.76 1.76 0 01-.23-.96V2.5h.72v2.76c0 .46.1.77.3.95.2.17.47.25.83.25a1.25 1.25 0 001.23-.83c.08-.19.12-.42.12-.68V2.5h.72V7h-.63l-.04-.68c-.16.27-.37.46-.64.59-.26.12-.58.18-.94.18zm5.55 0c-.44 0-.84-.1-1.22-.28a2 2 0 01-.84-.8l.61-.43c.13.27.32.49.58.65.25.15.56.23.92.23.32 0 .57-.06.75-.18a.57.57 0 00.27-.49.52.52 0 00-.13-.34c-.07-.1-.23-.18-.45-.23l-1.08-.23a1.72 1.72 0 01-.95-.45 1.14 1.14 0 01-.28-.78c0-.25.07-.47.2-.67.15-.2.35-.37.61-.5.27-.12.57-.18.93-.18.44 0 .82.09 1.12.26.3.18.54.42.69.74l-.6.4c-.1-.27-.27-.46-.5-.58a1.55 1.55 0 00-1.27-.1.82.82 0 00-.35.25.58.58 0 00.02.72c.09.11.26.19.5.24l1.13.23c.42.08.71.22.88.41.17.2.25.43.25.7a1.28 1.28 0 01-.85 1.24c-.27.11-.59.17-.94.17zM57.09 7v-.58c.6-.44 1.1-.83 1.49-1.16.4-.33.72-.63.96-.9s.41-.52.51-.76c.1-.25.16-.5.16-.77 0-.35-.12-.64-.35-.85a1.24 1.24 0 00-.91-.33c-.41 0-.74.13-.99.4-.24.26-.39.62-.43 1.06l-.63-.38c.06-.34.17-.65.34-.91.17-.27.4-.48.69-.63.3-.15.64-.22 1.04-.22.3 0 .58.04.82.14.25.08.46.21.63.38.18.16.3.36.4.59.1.23.14.48.14.75 0 .38-.09.74-.27 1.1-.18.35-.48.73-.89 1.12-.41.39-.97.82-1.68 1.3h.27a7.03 7.03 0 01.62-.02h2.08V7h-4zm7.38.09c-.67 0-1.2-.26-1.6-.78-.41-.52-.61-1.28-.61-2.28 0-1 .2-1.76.6-2.28.4-.52.94-.78 1.61-.78.68 0 1.22.26 1.61.78.4.52.6 1.28.6 2.28 0 1-.2 1.75-.6 2.28-.4.52-.93.78-1.6.78zm0-.65c.32 0 .59-.09.8-.27.22-.18.39-.46.5-.82.11-.36.17-.8.17-1.32s-.06-.96-.17-1.32a1.6 1.6 0 00-.5-.81 1.18 1.18 0 00-.8-.28c-.32 0-.59.1-.8.28-.22.18-.39.45-.5.8-.11.37-.17.8-.17 1.33 0 .52.06.96.17 1.32.11.36.28.64.5.82.21.18.48.27.8.27zm3.47.56v-.58c.6-.44 1.09-.83 1.48-1.16.4-.33.73-.63.97-.9s.4-.52.5-.76c.11-.25.16-.5.16-.77 0-.35-.11-.64-.34-.85a1.24 1.24 0 00-.92-.33c-.4 0-.73.13-.98.4-.25.26-.39.62-.43 1.06l-.63-.38c.05-.34.16-.65.33-.91.18-.27.4-.48.7-.63.29-.15.64-.22 1.04-.22.3 0 .58.04.82.14.24.08.45.21.63.38.17.16.3.36.4.59.09.23.14.48.14.75 0 .38-.1.74-.27 1.1-.18.35-.48.73-.9 1.12-.4.39-.97.82-1.68 1.3h.27a7.03 7.03 0 01.62-.02h2.08V7h-4zm7.19.09c-.53 0-1-.12-1.4-.37-.4-.25-.68-.6-.82-1.03l.72-.37c.07.22.17.41.3.58.12.16.28.29.49.38a2 2 0 001.45 0c.18-.1.31-.23.41-.4.1-.16.14-.36.14-.57 0-.22-.04-.4-.12-.54a.69.69 0 00-.38-.32c-.17-.07-.4-.1-.68-.1a2.83 2.83 0 00-.46.02v-.72l.15.01h.14c.44 0 .75-.08.94-.25.19-.18.28-.45.28-.81 0-.31-.1-.55-.29-.71-.19-.16-.46-.24-.82-.24-.38 0-.66.08-.86.25-.2.16-.36.38-.47.66l-.68-.32c.1-.25.24-.48.43-.67.2-.19.42-.34.7-.45.27-.1.57-.16.9-.16.41 0 .76.07 1.03.22a1.5 1.5 0 01.81 1.33c0 .22-.03.41-.1.58-.05.17-.14.32-.25.45-.1.12-.21.22-.35.3a1.3 1.3 0 01-.42.15V4a1.29 1.29 0 01.92.4c.1.13.19.27.24.42.06.15.1.31.1.48a1.75 1.75 0 01-.97 1.57c-.32.14-.67.22-1.08.22zm7.1-6.66v8.08h-.61V.43h.62zm6.93.63c.4 0 .75.07 1.04.22a1.64 1.64 0 01.96 1.59 1.7 1.7 0 01-.95 1.6c-.3.14-.65.2-1.05.2h-1.38V7h-.72V1.06h2.1zM89.05 4c.47 0 .81-.1 1.03-.29.21-.2.32-.48.32-.84 0-.37-.1-.66-.32-.85-.22-.19-.56-.28-1.03-.28h-1.27V4h1.27zm5 3.09a2.1 2.1 0 01-.82-.16c-.25-.11-.46-.28-.62-.52a1.76 1.76 0 01-.24-.96V2.5h.72v2.76c0 .46.1.77.3.95.2.17.48.25.84.25a1.25 1.25 0 001.23-.83c.08-.19.12-.42.12-.68V2.5h.72V7h-.63l-.05-.68c-.15.27-.37.46-.64.59-.26.12-.57.18-.93.18zm6.13 0a1.8 1.8 0 01-.7-.13 1.64 1.64 0 01-.91-.93l.1-.13L98.6 7h-.63V.43h.72v3.09l-.09-.14c.12-.28.32-.51.6-.7a1.97 1.97 0 012.75.8c.2.36.29.78.29 1.27s-.1.9-.29 1.26a1.97 1.97 0 01-1.77 1.08zm-.07-.63c.44 0 .79-.16 1.03-.47.25-.31.38-.72.38-1.24s-.12-.93-.37-1.24c-.25-.31-.59-.47-1.03-.47a1.32 1.32 0 00-1.25.82c-.12.26-.18.56-.18.9 0 .35.06.65.17.9.12.26.29.46.5.6.22.13.46.2.75.2zM104.3.43v5.43c0 .22.04.38.13.47.08.09.21.13.4.13a1.35 1.35 0 00.61-.13l-.11.63a1.7 1.7 0 01-.67.13c-.37 0-.64-.1-.82-.3-.17-.2-.26-.5-.26-.9V.42h.72zm2.43 1.2a.55.55 0 01-.4-.14.55.55 0 01-.14-.4c0-.16.05-.29.14-.38.1-.1.23-.15.4-.15.16 0 .29.05.38.15.1.1.16.22.16.39 0 .16-.05.29-.16.4-.1.09-.22.14-.38.14zm.36.87V7h-.72V2.5h.72zm3.53-.09c.31 0 .59.05.82.14.24.1.45.24.62.42.17.18.32.4.42.64l-.68.32c-.1-.29-.24-.5-.44-.66-.2-.15-.44-.23-.76-.23-.3 0-.55.07-.77.2-.22.14-.38.33-.5.6-.11.24-.17.55-.17.91 0 .35.06.66.17.92.12.26.28.45.5.6.22.12.47.19.77.19.24 0 .44-.04.6-.1.18-.08.32-.19.43-.32.11-.14.2-.3.23-.5l.67.23c-.1.27-.24.51-.42.7-.18.2-.4.36-.64.47-.25.1-.53.15-.85.15-.42 0-.8-.1-1.12-.28a1.95 1.95 0 01-.78-.8 2.67 2.67 0 01-.28-1.26c0-.49.1-.9.28-1.25.19-.35.45-.63.78-.81.33-.19.7-.28 1.12-.28zm3.53 3.51c.15 0 .27.04.36.12.1.07.18.17.24.3.05.13.08.28.08.45 0 .2-.04.4-.1.59-.08.19-.18.37-.32.53-.15.16-.33.3-.56.4l-.38-.35c.16-.05.3-.13.42-.22.13-.1.23-.2.3-.33.09-.12.14-.24.16-.37l-.03-.01a.32.32 0 01-.1.04.55.55 0 01-.16.02.47.47 0 01-.22-.06.6.6 0 01-.19-.18.59.59 0 01-.08-.33c0-.1.03-.2.08-.3.05-.09.12-.17.2-.22a.57.57 0 01.3-.08zM5.63 12.06V18h-.72v-5.94h.72zm-3.94 0V18H.97v-5.94h.72zm3.56 2.6v.67h-3.9v-.68h3.9zm4 3.43c-.42 0-.8-.1-1.14-.28a1.95 1.95 0 01-.77-.8 2.67 2.67 0 01-.28-1.26c0-.49.1-.9.28-1.25.19-.36.44-.63.77-.81.32-.19.69-.28 1.1-.28.42 0 .78.09 1.07.27.3.18.53.43.69.74.15.3.23.65.23 1.03a3.94 3.94 0 01-.03.5H7.53v-.63h3.32l-.37.07c0-.43-.12-.77-.36-1a1.25 1.25 0 00-.93-.35c-.29 0-.54.07-.76.2-.21.14-.38.33-.5.6-.11.24-.17.55-.17.91 0 .35.06.66.18.92s.3.45.5.6c.23.12.5.19.8.19.33 0 .6-.06.8-.19.21-.13.38-.3.5-.51l.57.33a1.88 1.88 0 01-1.06.88c-.23.08-.5.12-.8.12zm5.95-3c0-.33-.1-.6-.27-.77-.18-.19-.44-.28-.77-.28-.3 0-.57.07-.79.2-.21.14-.37.36-.48.65l-.58-.36c.12-.33.34-.6.67-.8.32-.21.72-.32 1.2-.32.33 0 .62.06.88.17.27.1.47.28.62.5.16.23.24.52.24.87v2.18c0 .21.11.32.34.32.11 0 .23-.01.33-.04l-.03.56c-.12.06-.28.1-.47.1-.17 0-.33-.04-.47-.1a.74.74 0 01-.32-.3c-.08-.14-.12-.31-.12-.52v-.09l.18.03c-.07.23-.2.43-.37.58a1.8 1.8 0 01-.58.32 2.18 2.18 0 01-1.38-.04 1.26 1.26 0 01-.55-.4c-.13-.19-.2-.41-.2-.68 0-.34.11-.62.34-.83.22-.22.54-.37.94-.45l1.78-.35v.6l-1.45.29c-.3.06-.51.14-.65.25a.53.53 0 00-.22.45c0 .19.07.34.22.46.15.11.36.17.63.17.17 0 .34-.02.5-.06.15-.05.3-.12.42-.21.13-.1.23-.21.3-.35.07-.14.1-.31.1-.5v-1.25zm3.15-3.66v5.43c0 .23.04.38.13.47.08.09.22.13.4.13a1.35 1.35 0 00.62-.13l-.12.63a1.7 1.7 0 01-.67.13c-.36 0-.64-.1-.82-.3-.17-.2-.26-.5-.26-.9v-5.46h.72zm2.96.8v4.53c0 .22.06.38.18.5.13.1.3.15.49.15a1.04 1.04 0 00.8-.33l.24.6c-.13.13-.3.23-.5.3-.18.07-.4.11-.64.11-.23 0-.44-.04-.64-.12-.2-.08-.35-.21-.47-.38a1.35 1.35 0 01-.18-.7v-4.47l.72-.2zm1.63 1.27v.62H19.7v-.62h3.25zm1.07 4.5v-6.57h.72v2.75c.16-.28.37-.47.62-.59.26-.12.54-.18.85-.18.32 0 .62.06.88.19.27.12.48.3.63.56.16.25.25.57.25.96V18h-.72v-2.63c0-.5-.11-.84-.33-1.03a1.1 1.1 0 00-.78-.3c-.22 0-.43.05-.65.15-.22.1-.4.27-.54.5-.14.24-.2.54-.2.93V18H24zm7.44-4.59c.31 0 .58.05.82.14.24.1.45.24.62.42.17.18.31.4.42.64l-.68.32c-.1-.29-.25-.5-.44-.66-.2-.15-.45-.23-.76-.23-.3 0-.56.07-.77.2-.22.14-.38.33-.5.6-.11.24-.17.55-.17.91 0 .35.06.66.17.92.12.26.28.45.5.6.21.12.47.19.77.19.23 0 .44-.04.6-.1.18-.08.32-.18.43-.32.11-.14.19-.3.23-.5l.67.23c-.1.27-.25.51-.43.7-.17.2-.38.36-.63.47-.25.1-.53.15-.85.15-.42 0-.8-.1-1.13-.28a1.95 1.95 0 01-.77-.8 2.67 2.67 0 01-.28-1.26c0-.49.1-.9.28-1.25.19-.36.44-.63.77-.81.33-.19.7-.28 1.13-.28zm5.8 1.68c0-.33-.09-.6-.27-.77-.18-.19-.43-.28-.76-.28-.32 0-.58.07-.8.2-.21.14-.37.36-.47.65l-.59-.36c.12-.33.34-.6.67-.8.32-.21.72-.32 1.2-.32.33 0 .62.06.89.17.26.1.47.28.62.5.15.23.23.52.23.87v2.18c0 .21.11.32.34.32.12 0 .23-.01.34-.04l-.04.56c-.12.06-.28.1-.47.1-.17 0-.33-.04-.47-.1a.74.74 0 01-.32-.3c-.08-.14-.12-.31-.12-.52v-.09l.18.03c-.07.23-.2.43-.37.58a1.8 1.8 0 01-.58.32 2.18 2.18 0 01-1.38-.04 1.26 1.26 0 01-.55-.4c-.13-.19-.2-.41-.2-.68 0-.34.12-.62.34-.83.23-.22.54-.37.94-.45l1.78-.35v.6l-1.44.29c-.3.06-.52.14-.66.25a.53.53 0 00-.22.45c0 .19.07.34.22.46.15.11.36.17.63.17.17 0 .34-.02.5-.06.16-.05.3-.12.43-.21.12-.1.22-.21.3-.35.06-.14.1-.31.1-.5v-1.25zM39.72 18v-4.5h.58l.1.74c.13-.28.31-.48.55-.62a1.8 1.8 0 011.15-.2c.1.02.17.04.24.08l-.13.66a1.14 1.14 0 00-.21-.06 2.34 2.34 0 00-.34-.01c-.18 0-.37.05-.56.16-.19.1-.35.27-.47.5-.13.2-.19.48-.19.82V18h-.72zm5.41.09c-.42 0-.8-.1-1.14-.28a1.95 1.95 0 01-.77-.8 2.67 2.67 0 01-.28-1.26c0-.49.1-.9.28-1.25.18-.36.44-.63.76-.81.33-.19.7-.28 1.1-.28.43 0 .79.09 1.08.27.3.18.53.43.68.74.16.3.24.65.24 1.03a3.94 3.94 0 01-.04.5h-3.63v-.63h3.32l-.37.07c0-.43-.12-.77-.36-1a1.25 1.25 0 00-.93-.35c-.3 0-.55.07-.76.2-.21.14-.38.33-.5.6-.11.24-.17.55-.17.91 0 .35.06.66.18.92s.29.45.5.6c.23.12.49.19.8.19.33 0 .6-.06.8-.19.2-.13.38-.3.5-.51l.57.33a1.88 1.88 0 01-1.06.88c-.24.08-.5.12-.8.12zm3.68-1.17c.14 0 .26.04.36.12.1.07.18.17.23.3.06.13.08.28.08.45 0 .2-.03.4-.1.59-.07.19-.18.37-.32.53-.14.16-.33.3-.56.4l-.38-.35c.17-.05.3-.13.43-.22.12-.1.22-.2.3-.33.08-.12.13-.24.16-.36l-.04-.02a.32.32 0 01-.1.04.55.55 0 01-.15.02.47.47 0 01-.23-.06.6.6 0 01-.19-.18.59.59 0 01-.08-.33c0-.1.03-.2.08-.3.06-.09.13-.16.21-.22a.57.57 0 01.3-.08zM54.04 18v-5.94h2.12c.7 0 1.21.15 1.53.44.33.3.49.7.49 1.2 0 .3-.09.57-.26.82-.17.24-.42.39-.74.46.36.07.63.23.84.5.2.24.31.53.31.86 0 .5-.19.9-.56 1.21-.38.3-.92.45-1.62.45h-2.11zm.72-.68h1.56c.42 0 .74-.08.94-.26a.9.9 0 00.32-.72c0-.32-.1-.57-.32-.73-.2-.18-.52-.26-.94-.26h-1.56v1.97zm0-2.65h1.4c.84 0 1.26-.32 1.26-.97 0-.64-.42-.96-1.26-.96h-1.4v1.93zm6.65 3.42a2.1 2.1 0 01-.81-.16c-.26-.11-.46-.28-.63-.52a1.76 1.76 0 01-.23-.96V13.5h.72v2.76c0 .46.1.77.3.95.2.17.47.25.83.25a1.25 1.25 0 001.23-.83c.09-.19.12-.42.12-.68V13.5h.72V18h-.63l-.04-.68c-.16.27-.37.46-.64.59-.26.12-.58.18-.94.18zm5.55 0c-.44 0-.84-.1-1.22-.28a2 2 0 01-.84-.8l.61-.43c.13.27.32.49.58.65.25.15.56.23.92.23.32 0 .57-.06.75-.18a.57.57 0 00.27-.49.52.52 0 00-.13-.34c-.07-.1-.23-.18-.45-.23l-1.08-.23a1.72 1.72 0 01-.95-.45 1.14 1.14 0 01-.28-.78c0-.25.07-.47.2-.67.15-.2.35-.37.61-.5.27-.12.57-.18.93-.18.44 0 .82.09 1.12.26.31.18.54.42.69.74l-.6.4c-.1-.27-.27-.46-.5-.58a1.55 1.55 0 00-1.27-.1.82.82 0 00-.35.25.58.58 0 00.02.72c.09.11.26.19.5.24l1.13.23c.42.08.71.22.88.41.17.2.25.43.25.7a1.28 1.28 0 01-.85 1.24c-.27.11-.59.17-.94.17zm3.49-5.45a.55.55 0 01-.4-.15.55.55 0 01-.14-.4c0-.16.04-.29.14-.38.1-.1.23-.15.4-.15.16 0 .29.05.38.15.1.1.16.22.16.39 0 .16-.05.29-.16.4-.1.09-.22.14-.38.14zm.36.86V18h-.72v-4.5h.72zm1.67 4.5v-4.5h.63l.06 1-.12-.1a1.5 1.5 0 01.95-.9 2.27 2.27 0 011.55.1c.26.12.47.3.63.56.16.25.24.57.24.96V18h-.72v-2.63c0-.5-.1-.84-.33-1.03a1.1 1.1 0 00-.78-.3c-.21 0-.43.05-.65.15-.21.1-.4.27-.54.5-.13.23-.2.53-.2.92V18h-.72zm7.45.09c-.43 0-.8-.1-1.14-.28a1.95 1.95 0 01-.78-.8 2.67 2.67 0 01-.28-1.26c0-.49.1-.9.28-1.25.19-.36.44-.63.77-.81.32-.19.7-.28 1.1-.28.42 0 .78.09 1.08.27.3.18.52.43.68.74.16.3.23.65.23 1.03a3.94 3.94 0 01-.03.5H78.2v-.63h3.32l-.37.07c0-.43-.12-.77-.36-1a1.25 1.25 0 00-.92-.35c-.3 0-.55.07-.77.2-.2.14-.37.33-.5.6-.1.24-.16.55-.16.91 0 .35.06.66.18.92s.28.45.5.6c.22.12.49.19.8.19.32 0 .59-.06.8-.19.2-.13.37-.3.5-.51l.56.33a1.88 1.88 0 01-1.06.88c-.23.08-.5.12-.79.12zm4.93 0c-.43 0-.84-.1-1.21-.28a2 2 0 01-.85-.8l.61-.43c.14.27.33.49.58.65.26.15.57.23.93.23.32 0 .56-.06.74-.18a.57.57 0 00.27-.49.52.52 0 00-.12-.34c-.08-.1-.23-.18-.46-.23l-1.08-.23a1.72 1.72 0 01-.95-.45 1.14 1.14 0 01-.27-.78c0-.25.06-.47.2-.67.15-.2.35-.37.6-.5.27-.12.58-.18.93-.18.45 0 .82.09 1.13.26.3.18.53.42.68.74l-.6.4c-.1-.27-.27-.46-.5-.58a1.55 1.55 0 00-1.27-.1.82.82 0 00-.35.25.58.58 0 00.02.72c.1.11.26.19.5.24l1.13.23c.42.08.71.22.88.41.17.2.25.43.25.7a1.28 1.28 0 01-.85 1.24c-.27.11-.58.17-.94.17zm4.75 0c-.44 0-.84-.1-1.22-.28a2 2 0 01-.84-.8l.61-.43c.13.27.32.49.58.65.25.15.56.23.92.23.32 0 .57-.06.75-.18a.57.57 0 00.27-.49.52.52 0 00-.13-.34c-.07-.1-.23-.18-.45-.23l-1.08-.23a1.72 1.72 0 01-.95-.45 1.14 1.14 0 01-.28-.78c0-.25.07-.47.2-.67.15-.2.35-.37.61-.5.27-.12.57-.18.93-.18.44 0 .82.09 1.12.26.3.18.54.42.69.74l-.6.4c-.1-.27-.27-.46-.5-.58a1.55 1.55 0 00-1.27-.1.82.82 0 00-.35.25.58.58 0 00.02.72c.09.11.26.19.5.24l1.13.23c.42.08.71.22.88.41.17.2.25.43.25.7a1.28 1.28 0 01-.85 1.24c-.27.11-.59.17-.94.17zm3.49-1.17c.14 0 .26.04.36.12.1.07.18.17.23.3.05.13.08.28.08.45 0 .2-.04.4-.1.59-.07.19-.18.37-.32.53-.15.16-.33.3-.56.4l-.38-.35c.16-.05.3-.13.42-.22.13-.1.23-.2.31-.33.08-.12.13-.24.15-.36l-.03-.02a.32.32 0 01-.1.04.55.55 0 01-.15.02.47.47 0 01-.23-.06.6.6 0 01-.19-.18.59.59 0 01-.08-.33c0-.1.03-.2.08-.3.06-.09.12-.16.2-.22a.57.57 0 01.3-.08zm5.95-4.86V18h-.72v-5.94h.72zM100.8 18v-4.5h.63l.07 1-.12-.1a1.5 1.5 0 01.94-.9 2.27 2.27 0 011.55.1c.27.12.48.3.63.56.16.25.24.57.24.96V18h-.72v-2.63c0-.5-.1-.84-.32-1.03a1.1 1.1 0 00-.78-.3c-.22 0-.43.05-.65.15-.22.1-.4.27-.54.5-.14.23-.2.53-.2.92V18h-.73zm7.33.09a1.97 1.97 0 01-1.77-1.08 2.67 2.67 0 01-.28-1.26c0-.5.1-.92.3-1.27a2.06 2.06 0 011.83-1.07c.36 0 .69.1.95.29.28.19.46.45.55.76l-.09.07v-3.1h.72V18h-.63l-.06-1.09.1-.05c-.04.26-.14.49-.3.67-.16.18-.36.32-.6.42-.22.1-.46.14-.72.14zm.07-.63a1.29 1.29 0 001.24-.83c.12-.27.18-.58.18-.94a2 2 0 00-.18-.88 1.3 1.3 0 00-1.2-.77c-.46 0-.81.16-1.06.47-.26.31-.38.72-.38 1.24s.12.93.37 1.24c.24.31.59.47 1.03.47zm5.45.63a2.1 2.1 0 01-.82-.16c-.26-.11-.46-.28-.62-.52a1.76 1.76 0 01-.24-.96V13.5h.72v2.76c0 .46.1.77.3.95.2.17.48.25.84.25a1.25 1.25 0 001.23-.83c.08-.19.12-.42.12-.68V13.5h.72V18h-.63l-.05-.68c-.16.27-.37.46-.64.59-.26.12-.57.18-.93.18zm5.54 0c-.44 0-.84-.1-1.21-.28a2 2 0 01-.85-.8l.61-.43c.14.27.33.49.58.65.26.15.57.23.93.23.31 0 .56-.06.74-.18a.57.57 0 00.27-.49.52.52 0 00-.12-.34c-.08-.1-.23-.18-.46-.23l-1.08-.23a1.72 1.72 0 01-.95-.45 1.14 1.14 0 01-.28-.78c0-.25.07-.47.21-.67.14-.2.35-.37.6-.5.27-.12.58-.18.93-.18.44 0 .82.09 1.13.26.3.18.53.42.68.74l-.6.4c-.1-.27-.27-.46-.5-.58a1.55 1.55 0 00-1.27-.1.82.82 0 00-.35.25.58.58 0 00.02.72c.09.11.26.19.5.24l1.13.23c.42.08.71.22.88.41.17.2.25.43.25.7a1.28 1.28 0 01-.85 1.24c-.27.11-.58.17-.94.17zm4.19-5.87v4.54c0 .22.06.38.19.5.13.1.29.15.48.15a1.04 1.04 0 00.8-.33l.25.6c-.14.13-.3.23-.5.3-.18.07-.4.11-.64.11-.23 0-.44-.04-.64-.12-.2-.08-.36-.21-.48-.38a1.35 1.35 0 01-.18-.7v-4.47l.72-.2zm1.64 1.28v.62h-3.26v-.62h3.26zm1.07 4.5v-4.5h.58l.1.74c.13-.28.31-.48.55-.62a1.8 1.8 0 011.14-.2c.1.02.18.04.25.08l-.13.66a1.14 1.14 0 00-.21-.06 2.34 2.34 0 00-.34-.01c-.18 0-.37.05-.56.16-.19.1-.35.27-.47.5-.13.2-.2.48-.2.82V18h-.71zm7.37-4.5l-2.11 5.26c-.12.29-.24.52-.38.69-.13.17-.28.3-.45.37a1.3 1.3 0 01-.57.11 1.73 1.73 0 01-1.02-.31l.2-.63c.12.1.25.19.38.23.14.06.27.09.4.09.16 0 .3-.05.45-.15.13-.1.26-.29.38-.58l.23-.59-.45-1.07-1.43-3.42h.82l1.12 2.93.28.8.33-.89 1.05-2.84h.77z" fill="#fff"/></svg>