<svg width="140" height="68" viewBox="0 0 140 68" fill="none" xmlns="http://www.w3.org/2000/svg"><path d="M3 10.46c0 3.26 1.4 6.86 5.23 6.86 3.84 0 5.23-3.6 5.23-6.86 0-3.27-1.39-6.87-5.23-6.87C4.4 3.6 3 7.2 3 10.46zm-2.26 0c0-4.44 2.62-8.7 7.5-8.7 4.86 0 7.48 4.26 7.48 8.7 0 4.44-2.62 8.68-7.49 8.68S.74 14.9.74 10.46zm16.15 7.56V7.22c0-.7.4-1.13 1.05-1.13S19 6.52 19 7.22v.5l.05.05a4.37 4.37 0 013.52-1.68c1.97 0 4.44 1.25 4.44 4.85v7.08c0 .7-.4 1.12-1.05 1.12s-1.06-.43-1.06-1.12v-6.96c0-2.24-1.56-3.15-2.95-3.15-1.4 0-2.95.91-2.95 3.15v6.96c0 .7-.41 1.12-1.06 1.12-.65 0-1.05-.43-1.05-1.12zM29.5 6.23V3.47c0-.7.4-1.13 1.06-1.13.65 0 1.05.44 1.05 1.13v2.76h.87c.7 0 1.05.34 1.05.91 0 .58-.36.92-1.05.92h-.87v9.96c0 .7-.4 1.12-1.05 1.12s-1.06-.43-1.06-1.12V8.06h-.86c-.7 0-1.06-.34-1.06-.92 0-.57.36-.9 1.06-.9h.86zm13.17 6.39c0-2.16-.91-4.7-3.5-4.7-2.6 0-3.5 2.54-3.5 4.7s.9 4.7 3.5 4.7c2.59 0 3.5-2.54 3.5-4.7zm-.21 5.4v-.63h-.05c-.6 1.15-1.73 1.75-3.41 1.75-3.46 0-5.45-3.14-5.45-6.52 0-3.39 2-6.53 5.45-6.53 1.68 0 2.86.93 3.4 1.73h.06V1.6c0-.7.4-1.13 1.05-1.13s1.06.43 1.06 1.13v16.42c0 .7-.41 1.12-1.06 1.12-.65 0-1.05-.43-1.05-1.12zm13.3-4.59h-7.94c0 2.19 1.4 3.89 3.77 3.89 2.81 0 3.53-1.73 4.32-1.73.39 0 .77.34.77.94 0 1.03-2.62 2.61-5.11 2.61-4.08 0-5.86-3.14-5.86-6.52 0-3.46 2.16-6.53 5.74-6.53 3.48 0 5.5 3.14 5.5 6.21 0 .75-.27 1.13-1.18 1.13zm-7.94-1.58h7.01c0-1.83-1.05-3.94-3.38-3.94-2.62-.1-3.55 2-3.63 3.94zM58 18.02V1.6c0-.7.4-1.13 1.05-1.13s1.06.43 1.06 1.13v9l4.6-3.86c.44-.39.85-.65 1.2-.65.56 0 .9.4.9.93 0 .32-.12.6-.53.92l-4.8 3.79 5.57 5.5c.4.4.5.67.5 1.07 0 .48-.43.84-.89.84-.5 0-.72-.14-1.22-.64l-5.33-5.57v5.09c0 .7-.4 1.12-1.06 1.12-.64 0-1.05-.43-1.05-1.12zm23.76-5.4c0-2.16-.92-4.7-3.5-4.7-2.6 0-3.51 2.54-3.51 4.7s.91 4.7 3.5 4.7c2.6 0 3.5-2.54 3.5-4.7zm-.22 5.4v-.63h-.05c-.6 1.15-1.73 1.75-3.4 1.75-3.46 0-5.45-3.14-5.45-6.52 0-3.39 1.99-6.53 5.44-6.53 1.68 0 2.86.93 3.41 1.73h.05V1.6c0-.7.4-1.13 1.06-1.13.64 0 1.05.43 1.05 1.13v16.42c0 .7-.4 1.12-1.05 1.12s-1.06-.43-1.06-1.12zm13.31-4.59h-7.94c0 2.19 1.39 3.89 3.77 3.89 2.8 0 3.52-1.73 4.32-1.73.38 0 .76.34.76.94 0 1.03-2.61 2.61-5.1 2.61-4.09 0-5.86-3.14-5.86-6.52 0-3.46 2.16-6.53 5.73-6.53 3.48 0 5.5 3.14 5.5 6.21 0 .75-.27 1.13-1.18 1.13zm-7.94-1.58h7c0-1.83-1.05-3.94-3.38-3.94-2.61-.1-3.55 2-3.62 3.94zM3.5 35.44v6.58c0 .7-.41 1.12-1.06 1.12-.65 0-1.06-.43-1.06-1.12V27.06c0-.64.34-1.15 1.13-1.15h6c.6 0 1.03.31 1.03.99 0 .67-.43.98-1.03.98H3.5v5.6h4.44c.6 0 1.04.3 1.04.98 0 .67-.44.98-1.04.98H3.5zm8.8-9.84v16.42c0 .7-.4 1.12-1.05 1.12s-1.05-.43-1.05-1.12V25.6c0-.7.4-1.13 1.05-1.13s1.06.43 1.06 1.13zm11.12 11.83H15.5c0 2.19 1.39 3.89 3.77 3.89 2.8 0 3.52-1.73 4.32-1.73.38 0 .76.34.76.94 0 1.03-2.61 2.61-5.1 2.61-4.09 0-5.86-3.14-5.86-6.52 0-3.46 2.16-6.53 5.73-6.53 3.48 0 5.5 3.14 5.5 6.21 0 .75-.27 1.13-1.18 1.13zm-7.94-1.58h7c0-1.83-1.05-3.94-3.38-3.94-2.61-.1-3.55 2-3.62 3.94zm9.35 5.33l3.76-4.95-3.3-4.34a1.42 1.42 0 01-.37-.84c0-.53.39-.96.9-.96.47 0 .69.21.9.48l3.1 4.13 3.1-4.13c.21-.27.43-.48.9-.48.51 0 .9.43.9.96 0 .21-.1.5-.37.84l-3.3 4.34 3.76 4.95c.34.45.43.76.43 1 0 .53-.4.96-.96.96-.36 0-.72-.16-.93-.48l-3.53-4.9-3.53 4.9c-.22.32-.58.48-.94.48a.95.95 0 01-.96-.96c0-.24.1-.55.44-1zm13.1-9.96v10.8c0 .7-.41 1.12-1.06 1.12-.65 0-1.05-.43-1.05-1.12v-10.8c0-.7.4-1.13 1.05-1.13s1.06.43 1.06 1.13zm-2.35-4.16c0-.72.57-1.3 1.3-1.3.71 0 1.29.58 1.29 1.3 0 .72-.58 1.3-1.3 1.3a1.3 1.3 0 01-1.3-1.3zm6.17 9.56c0 2.16.9 4.7 3.5 4.7s3.5-2.54 3.5-4.7-.9-4.7-3.5-4.7-3.5 2.54-3.5 4.7zm-1.9 5.4V25.6c0-.7.4-1.13 1.06-1.13.64 0 1.05.43 1.05 1.13v6.22h.05a4.17 4.17 0 013.4-1.73c3.46 0 5.46 3.14 5.46 6.53 0 3.38-2 6.52-5.45 6.52-1.68 0-2.81-.6-3.41-1.75h-.05v.63c0 .7-.4 1.12-1.05 1.12s-1.06-.43-1.06-1.12zm14.4-10.8v10.8c0 .7-.42 1.12-1.06 1.12-.65 0-1.06-.43-1.06-1.12v-10.8c0-.7.4-1.13 1.06-1.13.64 0 1.05.43 1.05 1.13zm-2.36-4.16c0-.72.58-1.3 1.3-1.3.72 0 1.3.58 1.3 1.3 0 .72-.58 1.3-1.3 1.3a1.3 1.3 0 01-1.3-1.3zm6.29-1.46v16.42c0 .7-.4 1.12-1.06 1.12-.64 0-1.05-.43-1.05-1.12V25.6c0-.7.4-1.13 1.05-1.13s1.06.43 1.06 1.13zm3.94 5.62v10.8c0 .7-.4 1.12-1.06 1.12-.65 0-1.05-.43-1.05-1.12v-10.8c0-.7.4-1.13 1.05-1.13s1.06.43 1.06 1.13zm-2.35-4.16c0-.72.57-1.3 1.3-1.3.71 0 1.29.58 1.29 1.3 0 .72-.58 1.3-1.3 1.3a1.3 1.3 0 01-1.3-1.3zm4.85 3.17v-2.76c0-.7.4-1.13 1.05-1.13s1.06.44 1.06 1.13v2.76h.86c.7 0 1.06.34 1.06.91 0 .58-.36.92-1.06.92h-.86v9.96c0 .7-.4 1.12-1.06 1.12-.64 0-1.05-.43-1.05-1.12v-9.96h-.87c-.7 0-1.05-.34-1.05-.92 0-.57.36-.9 1.05-.9h.87zm13.89 7.2h-7.95c0 2.19 1.4 3.89 3.77 3.89 2.81 0 3.53-1.73 4.32-1.73.39 0 .77.34.77.94 0 1.03-2.62 2.61-5.11 2.61-4.08 0-5.86-3.14-5.86-6.52 0-3.46 2.16-6.53 5.74-6.53 3.48 0 5.5 3.14 5.5 6.21 0 .75-.27 1.13-1.18 1.13zm-7.95-1.58h7.01c0-1.83-1.05-3.94-3.38-3.94-2.62-.1-3.55 2-3.63 3.94zm12.28-4.63v10.8c0 .7-.4 1.12-1.06 1.12-.64 0-1.05-.43-1.05-1.12v-10.8c0-.7.4-1.13 1.05-1.13s1.06.43 1.06 1.13zm-2.35-4.16c0-.72.57-1.3 1.3-1.3.71 0 1.29.58 1.29 1.3 0 .72-.58 1.3-1.3 1.3a1.3 1.3 0 01-1.3-1.3zm4.85 3.17v-2.76c0-.7.4-1.13 1.05-1.13s1.06.44 1.06 1.13v2.76h.86c.7 0 1.06.34 1.06.91 0 .58-.36.92-1.06.92h-.86v9.96c0 .7-.4 1.12-1.06 1.12-.64 0-1.05-.43-1.05-1.12v-9.96h-.87c-.7 0-1.05-.34-1.05-.92 0-.57.36-.9 1.05-.9h.87zm12.26 12l-3.67-10.3a2.49 2.49 0 01-.22-.86c0-.62.46-.98.96-.98.7 0 .94.33 1.1.81l2.9 8.84h.06l2.9-8.84c.17-.48.4-.81 1.1-.81.5 0 .96.36.96.98 0 .24-.07.48-.21.87l-3.67 10.3c-.22.62-.44.9-1.1.9-.68 0-.9-.28-1.11-.9zm17.2-11.11v11a.98.98 0 01-.98 1.02.97.97 0 01-.99-1.03v-.89h-.05a4.13 4.13 0 01-3.48 1.92c-3.6 0-5.61-3.14-5.61-6.52 0-3.39 2.01-6.53 5.61-6.53 1.47 0 2.5.62 3.48 1.7h.05v-.67c0-.74.55-1.03.99-1.03.4 0 .98.29.98 1.03zm-9 5.5c0 2.16.91 4.7 3.5 4.7 2.6 0 3.5-2.54 3.5-4.7s-.9-4.7-3.5-4.7c-2.59 0-3.5 2.54-3.5 4.7zm10.82 5.4v-10.8c0-.7.4-1.13 1.05-1.13s1.06.43 1.06 1.13v.5l.05.05a4.37 4.37 0 013.52-1.68c1.97 0 4.44 1.25 4.44 4.85v7.08c0 .7-.4 1.12-1.05 1.12s-1.06-.43-1.06-1.12v-6.96c0-2.24-1.56-3.15-2.95-3.15-1.4 0-2.95.91-2.95 3.15v6.96c0 .7-.41 1.12-1.06 1.12-.65 0-1.05-.43-1.05-1.12zM1.5 65.85V51.06c0-.64.34-1.15 1.13-1.15h4.15c5.09 0 7.59 3.94 7.59 8.45 0 5.11-2.72 8.64-7.3 8.64H2.64c-.8 0-1.13-.5-1.13-1.15zm2.11-14.11v13.44h3.03c3.98 0 5.47-3.34 5.47-6.82 0-3.5-1.58-6.62-5.62-6.62H3.62zm21.22 9.7h-7.95c0 2.18 1.4 3.88 3.77 3.88 2.8 0 3.53-1.73 4.32-1.73.39 0 .77.34.77.94 0 1.03-2.62 2.61-5.11 2.61-4.08 0-5.86-3.14-5.86-6.52 0-3.46 2.16-6.53 5.74-6.53 3.48 0 5.5 3.14 5.5 6.21 0 .75-.27 1.13-1.18 1.13zm-7.95-1.6h7.01c0-1.82-1.05-3.93-3.38-3.93-2.62-.1-3.55 2-3.63 3.94zm10.84-5.6v-2.77c0-.7.4-1.13 1.06-1.13.64 0 1.05.44 1.05 1.13v2.76h.87c.7 0 1.05.34 1.05.91 0 .58-.36.92-1.05.92h-.87v9.96c0 .7-.4 1.12-1.05 1.12s-1.06-.43-1.06-1.12v-9.96h-.86c-.7 0-1.06-.34-1.06-.92 0-.57.36-.9 1.06-.9h.86zm4.6 11.78v-10.8c0-.7.41-1.13 1.06-1.13.65 0 1.05.43 1.05 1.13v1.08h.05c.48-.99 1.66-2.21 2.88-2.21.75 0 1.18.48 1.18 1.08 0 .6-.43.98-1.32 1.15-1.25.22-2.79 1.15-2.79 3.62v6.08c0 .7-.4 1.12-1.05 1.12s-1.06-.43-1.06-1.12zm6.06-5.4c0-3.39 2.02-6.53 5.62-6.53s5.61 3.14 5.61 6.53c0 3.38-2.01 6.52-5.61 6.52-3.6 0-5.62-3.14-5.62-6.52zm2.11 0c0 2.16.91 4.7 3.5 4.7 2.6 0 3.51-2.54 3.51-4.7s-.91-4.7-3.5-4.7c-2.6 0-3.5 2.54-3.5 4.7zm10.4 5.4v-10.8c0-.7.4-1.13 1.05-1.13s1.06.43 1.06 1.13v.5l.05.05a4.37 4.37 0 013.52-1.68c1.97 0 4.44 1.25 4.44 4.85v7.08c0 .7-.4 1.12-1.05 1.12s-1.06-.43-1.06-1.12v-6.96c0-2.24-1.56-3.15-2.95-3.15-1.4 0-2.95.91-2.95 3.15v6.96c0 .7-.4 1.12-1.06 1.12-.65 0-1.05-.43-1.05-1.12zm22.3-2.43l4.31-12.45c.27-.75.46-1.37 1.3-1.37.58 0 .94.43.94.86 0 .29-.05.53-.15.82l-5.2 14.54c-.25.7-.5 1.15-1.23 1.15-.72 0-.98-.45-1.22-1.15l-5.21-14.54c-.1-.29-.15-.53-.15-.82 0-.43.36-.86.94-.86.84 0 1.03.62 1.3 1.37l4.32 12.45h.04zm15.46-2.16h-7.94c0 2.19 1.4 3.89 3.77 3.89 2.8 0 3.53-1.73 4.32-1.73.38 0 .77.34.77.94 0 1.03-2.62 2.61-5.12 2.61-4.08 0-5.85-3.14-5.85-6.52 0-3.46 2.16-6.53 5.73-6.53 3.48 0 5.5 3.14 5.5 6.21 0 .75-.26 1.13-1.18 1.13zm-7.94-1.58h7c0-1.83-1.05-3.94-3.38-3.94-2.61-.1-3.55 2-3.62 3.94zm10.16 6.17v-10.8c0-.7.41-1.13 1.06-1.13.65 0 1.06.43 1.06 1.13v1.08h.04c.48-.99 1.66-2.21 2.88-2.21.75 0 1.18.48 1.18 1.08 0 .6-.43.98-1.32 1.15-1.25.22-2.78 1.15-2.78 3.62v6.08c0 .7-.41 1.12-1.06 1.12-.65 0-1.06-.43-1.06-1.12zm14.63 0v-6.96c0-2.24-1.56-3.15-2.95-3.15-1.4 0-2.95.91-2.95 3.15v6.96c0 .7-.41 1.12-1.06 1.12-.65 0-1.05-.43-1.05-1.12V49.6c0-.7.4-1.13 1.05-1.13s1.06.43 1.06 1.13v6.12l.05.05a4.37 4.37 0 013.52-1.68c1.97 0 4.44 1.25 4.44 4.85v7.08c0 .7-.4 1.12-1.05 1.12s-1.06-.43-1.06-1.12zm3.94-3.96v-6.84c0-.7.4-1.13 1.05-1.13s1.06.43 1.06 1.13v6.76c0 2.19.96 3.34 2.95 3.34 2 0 2.95-1.15 2.95-3.34v-6.76c0-.7.41-1.13 1.06-1.13.65 0 1.06.43 1.06 1.13v6.84c0 3.74-2.5 5.08-5.07 5.08-2.57 0-5.06-1.34-5.06-5.08zm11.95 0v-6.84c0-.7.41-1.13 1.06-1.13.65 0 1.06.43 1.06 1.13v6.76c0 2.19.95 3.34 2.95 3.34 1.99 0 2.95-1.15 2.95-3.34v-6.76c0-.7.4-1.13 1.06-1.13.64 0 1.05.43 1.05 1.13v6.84c0 3.74-2.5 5.08-5.06 5.08-2.57 0-5.07-1.34-5.07-5.08zm11.96 3.96v-10.8c0-.7.4-1.13 1.05-1.13s1.06.43 1.06 1.13v1.08h.05c.48-.99 1.65-2.21 2.88-2.21.74 0 1.17.48 1.17 1.08 0 .6-.43.98-1.32 1.15-1.25.22-2.78 1.15-2.78 3.62v6.08c0 .7-.4 1.12-1.06 1.12-.65 0-1.05-.43-1.05-1.12z" fill="#fff"/></svg>